# Created by DisUnity v0.3.4
v -0.393513 -0.197003 0.513471
v -0.393513 0.467973 0.037363
v -0.393513 0.467973 0.513471
v -0.393513 -0.197003 0.037363
v -0.393513 -0.467973 0.513471
v -0.393513 -0.467973 0.037363
v -0.393513 -0.527198 1.529102
v -0.393513 -0.258504 1.564154
v -0.393513 0.467973 0.513471
v 0.393513 0.467973 0.037363
v 0.393513 0.467973 0.513471
v -0.393513 0.467973 0.037363
v 0.393513 -0.197003 0.513471
v 0.393513 -0.467973 0.037363
v 0.393513 -0.467973 0.513471
v 0.393513 -0.197003 0.037363
v 0.393513 0.467973 0.513471
v 0.393513 0.467973 0.037363
v 0.393513 -0.258504 1.564154
v 0.393513 -0.527198 1.529102
v 0.393513 -0.467973 0.513471
v -0.393513 -0.467973 0.037363
v -0.393513 -0.467973 0.513471
v 0.393513 -0.467973 0.037363
v 0.393513 -0.197003 0.513471
v -0.393513 0.467973 0.513471
v 0.393513 0.467973 0.513471
v -0.393513 -0.197003 0.513471
v 0.393513 -0.197003 0.513471
v -0.393513 -0.258504 1.564154
v -0.393513 -0.197003 0.513471
v 0.393513 -0.258504 1.564154
v 0.393513 -0.527198 1.529102
v -0.393513 -0.258504 1.564154
v 0.393513 -0.258504 1.564154
v -0.393513 -0.527198 1.529102
v -0.393513 -0.467973 0.513471
v 0.393513 -0.527198 1.529102
v 0.393513 -0.467973 0.513471
v -0.393513 -0.527198 1.529102
vn -1.0 0.0 0.0
vn -1.0 0.0 0.0
vn -1.0 0.0 0.0
vn -1.0 0.0 0.0
vn -1.0 0.0 0.0
vn -1.0 0.0 0.0
vn -1.0 0.0 0.0
vn -1.0 0.0 0.0
vn -0.0 1.0 0.0
vn -0.0 1.0 0.0
vn -0.0 1.0 0.0
vn -0.0 1.0 0.0
vn 1.0 0.0 0.0
vn 1.0 0.0 0.0
vn 1.0 0.0 0.0
vn 1.0 0.0 0.0
vn 1.0 0.0 0.0
vn 1.0 0.0 0.0
vn 1.0 0.0 0.0
vn 1.0 0.0 0.0
vn -0.0 -1.0 0.0
vn -0.0 -1.0 0.0
vn -0.0 -1.0 0.0
vn -0.0 -1.0 0.0
vn -0.0 0.0 1.0
vn -0.0 0.0 1.0
vn -0.0 0.0 1.0
vn -0.0 0.0 1.0
vn -0.0 0.9982912 0.058434278
vn -0.0 0.9982912 0.058434278
vn -0.0 0.9982912 0.058434278
vn -0.0 0.9982912 0.058434278
vn -0.0 -0.12935738 0.991598
vn -0.0 -0.12935738 0.991598
vn -0.0 -0.12935738 0.991598
vn -0.0 -0.12935738 0.991598
vn -0.0 -0.9983041 -0.058214635
vn -0.0 -0.9983041 -0.058214635
vn -0.0 -0.9983041 -0.058214635
vn -0.0 -0.9983041 -0.058214635
vt 0.0 1.0
vt 0.0 1.0
vt 0.0 1.0
vt 0.0 1.0
vt 0.0 1.0
vt 0.0 1.0
vt 0.0 1.0
vt 0.0 1.0
vt 0.0 1.0
vt 0.0 1.0
vt 0.0 1.0
vt 0.0 1.0
vt 0.0 1.0
vt 0.0 1.0
vt 0.0 1.0
vt 0.0 1.0
vt 0.0 1.0
vt 0.0 1.0
vt 0.0 1.0
vt 0.0 1.0
vt 0.0 1.0
vt 0.0 1.0
vt 0.0 1.0
vt 0.0 1.0
vt 0.0 1.0
vt 0.0 1.0
vt 0.0 1.0
vt 0.0 1.0
vt 0.0 1.0
vt 0.0 1.0
vt 0.0 1.0
vt 0.0 1.0
vt 0.0 1.0
vt 0.0 1.0
vt 0.0 1.0
vt 0.0 1.0
vt 0.0 1.0
vt 0.0 1.0
vt 0.0 1.0
vt 0.0 1.0

g Model_0
s 1
usemtl Model_0
f 3/3/3 2/2/2 1/1/1 
f 2/2/2 4/4/4 1/1/1 
f 1/1/1 4/4/4 5/5/5 
f 4/4/4 6/6/6 5/5/5 
f 5/5/5 7/7/7 1/1/1 
f 7/7/7 8/8/8 1/1/1 
f 11/11/11 10/10/10 9/9/9 
f 10/10/10 12/12/12 9/9/9 
f 15/15/15 14/14/14 13/13/13 
f 14/14/14 16/16/16 13/13/13 
f 13/13/13 16/16/16 17/17/17 
f 16/16/16 18/18/18 17/17/17 
f 13/13/13 19/19/19 15/15/15 
f 19/19/19 20/20/20 15/15/15 
f 23/23/23 22/22/22 21/21/21 
f 22/22/22 24/24/24 21/21/21 
f 27/27/27 26/26/26 25/25/25 
f 26/26/26 28/28/28 25/25/25 
f 31/31/31 30/30/30 29/29/29 
f 30/30/30 32/32/32 29/29/29 
f 35/35/35 34/34/34 33/33/33 
f 34/34/34 36/36/36 33/33/33 
f 39/39/39 38/38/38 37/37/37 
f 38/38/38 40/40/40 37/37/37 

