# Created by DisUnity v0.3.4
v -0.0 0.058358 0.38389
v 0.191945 -0.058358 0.332458
v -0.0 -0.058358 0.383889
v 0.191945 0.058358 0.332459
v 0.191945 0.058358 0.332459
v 0.332458 -0.058358 0.191945
v 0.191945 -0.058358 0.332458
v 0.332458 0.058358 0.191945
v 0.332458 0.058358 0.191945
v 0.38389 -0.058358 0.0
v 0.332458 -0.058358 0.191945
v 0.38389 0.058358 0.0
v 0.38389 0.058358 0.0
v 0.332458 -0.058358 -0.191945
v 0.38389 -0.058358 0.0
v 0.332458 0.058358 -0.191944
v 0.332458 0.058358 -0.191944
v 0.191945 -0.058358 -0.332459
v 0.332458 -0.058358 -0.191945
v 0.191945 0.058358 -0.332458
v 0.191945 0.058358 -0.332458
v -0.0 -0.058358 -0.38389
v 0.191945 -0.058358 -0.332459
v -0.0 0.058358 -0.383889
v -0.0 0.058358 -0.383889
v -0.191945 -0.058358 -0.332459
v -0.0 -0.058358 -0.38389
v -0.191945 0.058358 -0.332458
v -0.191945 0.058358 -0.332458
v -0.332458 -0.058358 -0.191945
v -0.191945 -0.058358 -0.332459
v -0.332458 0.058358 -0.191945
v -0.332458 0.058358 -0.191945
v -0.38389 -0.058358 0.0
v -0.332458 -0.058358 -0.191945
v -0.38389 0.058358 0.0
v -0.38389 0.058358 0.0
v -0.332458 -0.058358 0.191944
v -0.38389 -0.058358 0.0
v -0.332458 0.058358 0.191945
v 0.332458 -0.058358 -0.191945
v 0.294016 -0.058358 0.0
v 0.38389 -0.058358 0.0
v 0.254625 -0.058358 -0.147008
v 0.191945 -0.058358 -0.332459
v 0.147008 -0.058358 -0.254626
v 0.254625 -0.058358 0.147008
v 0.332458 -0.058358 0.191945
v 0.147008 -0.058358 0.254625
v 0.191945 -0.058358 0.332458
v -0.0 -0.058358 0.294016
v -0.0 -0.058358 0.383889
v -0.0 -0.058358 -0.38389
v -0.0 -0.058358 -0.294016
v -0.191945 -0.058358 -0.332459
v -0.147008 -0.058358 -0.254626
v -0.332458 -0.058358 -0.191945
v -0.254625 -0.058358 -0.147008
v -0.38389 -0.058358 0.0
v -0.294016 -0.058358 0.0
v -0.332458 -0.058358 0.191944
v -0.254626 -0.058358 0.147008
v -0.191945 -0.058358 0.332458
v -0.147008 -0.058358 0.254625
v -0.191945 0.058358 0.332459
v -0.0 -0.058358 0.383889
v -0.191945 -0.058358 0.332458
v -0.0 0.058358 0.38389
v -0.332458 0.058358 0.191945
v -0.191945 -0.058358 0.332458
v -0.332458 -0.058358 0.191944
v -0.191945 0.058358 0.332459
v -0.0 0.058358 0.38389
v 0.147008 0.058358 0.254626
v 0.191945 0.058358 0.332459
v -0.0 0.058358 0.294016
v -0.191945 0.058358 0.332459
v -0.147008 0.058358 0.254626
v -0.332458 0.058358 0.191945
v -0.254626 0.058358 0.147008
v -0.38389 0.058358 0.0
v -0.294016 0.058358 0.0
v -0.332458 0.058358 -0.191945
v -0.254625 0.058358 -0.147008
v -0.191945 0.058358 -0.332458
v -0.147008 0.058358 -0.254625
v -0.0 0.058358 -0.383889
v -0.0 0.058358 -0.294016
v 0.191945 0.058358 -0.332458
v 0.147008 0.058358 -0.254625
v 0.332458 0.058358 -0.191944
v 0.254625 0.058358 -0.147008
v 0.38389 0.058358 0.0
v 0.294016 0.058358 0.0
v 0.332458 0.058358 0.191945
v 0.254625 0.058358 0.147008
v -0.254625 0.058358 -0.147008
v -0.294016 -0.058358 0.0
v -0.294016 0.058358 0.0
v -0.254625 -0.058358 -0.147008
v -0.147008 0.058358 -0.254625
v -0.254625 -0.058358 -0.147008
v -0.254625 0.058358 -0.147008
v -0.147008 -0.058358 -0.254626
v -0.294016 0.058358 0.0
v -0.254626 -0.058358 0.147008
v -0.254626 0.058358 0.147008
v -0.294016 -0.058358 0.0
v -0.254626 0.058358 0.147008
v -0.147008 -0.058358 0.254625
v -0.147008 0.058358 0.254626
v -0.254626 -0.058358 0.147008
v -0.147008 0.058358 0.254626
v -0.0 -0.058358 0.294016
v -0.0 0.058358 0.294016
v -0.147008 -0.058358 0.254625
v -0.0 0.058358 0.294016
v 0.147008 -0.058358 0.254625
v 0.147008 0.058358 0.254626
v -0.0 -0.058358 0.294016
v 0.147008 0.058358 0.254626
v 0.254625 -0.058358 0.147008
v 0.254625 0.058358 0.147008
v 0.147008 -0.058358 0.254625
v 0.254625 0.058358 0.147008
v 0.294016 -0.058358 0.0
v 0.294016 0.058358 0.0
v 0.254625 -0.058358 0.147008
v 0.294016 0.058358 0.0
v 0.254625 -0.058358 -0.147008
v 0.254625 0.058358 -0.147008
v 0.294016 -0.058358 0.0
v 0.254625 0.058358 -0.147008
v 0.147008 -0.058358 -0.254626
v 0.147008 0.058358 -0.254625
v 0.254625 -0.058358 -0.147008
v 0.147008 0.058358 -0.254625
v -0.0 -0.058358 -0.294016
v -0.0 0.058358 -0.294016
v 0.147008 -0.058358 -0.254626
v -0.0 0.058358 -0.294016
v -0.147008 -0.058358 -0.254626
v -0.147008 0.058358 -0.254625
v -0.0 -0.058358 -0.294016
v -0.039604 -0.026189 -0.035544
v -0.039604 0.026189 -0.342201
v -0.039604 0.026189 -0.035544
v -0.039604 -0.026189 -0.342201
v 4.41E-4 0.026189 0.027856
v 0.252746 -0.026189 0.187219
v 4.41E-4 -0.026189 0.027856
v 0.252746 0.026189 0.187219
v 0.040486 -0.026189 -0.035544
v -0.039604 -0.026189 -0.035544
v 4.41E-4 -0.026189 0.027856
v 0.292791 -0.026189 0.123819
v 0.252746 -0.026189 0.187219
v -0.272744 -0.026189 0.200407
v -0.312789 -0.026189 0.137008
v 4.41E-4 0.026189 0.027856
v -0.312789 0.026189 0.137008
v -0.039604 0.026189 -0.035544
v -0.272744 0.026189 0.200407
v 0.040486 0.026189 -0.035544
v 0.252746 0.026189 0.187219
v 0.292791 0.026189 0.123819
v 0.040486 -0.026189 -0.035544
v 0.292791 0.026189 0.123819
v 0.040486 0.026189 -0.035544
v 0.292791 -0.026189 0.123819
v 0.040486 -0.026189 -0.035544
v -0.039604 -0.026189 -0.342201
v -0.039604 -0.026189 -0.035544
v 0.040486 -0.026189 -0.342201
v -0.039604 0.026189 -0.035544
v 0.040486 0.026189 -0.342201
v 0.040486 0.026189 -0.035544
v -0.039604 0.026189 -0.342201
v 0.040486 0.026189 -0.035544
v 0.040486 -0.026189 -0.342201
v 0.040486 -0.026189 -0.035544
v 0.040486 0.026189 -0.342201
v 4.41E-4 -0.026189 0.027856
v -0.272744 0.026189 0.200407
v 4.41E-4 0.026189 0.027856
v -0.272744 -0.026189 0.200407
v -0.039604 0.026189 -0.035544
v -0.312789 -0.026189 0.137008
v -0.039604 -0.026189 -0.035544
v -0.312789 0.026189 0.137008
vn 0.25881666 0.0 0.9659265
vn 0.25881666 0.0 0.9659265
vn 0.25881666 0.0 0.9659265
vn 0.25881666 0.0 0.9659265
vn 0.707108 0.0 0.7071055
vn 0.707108 0.0 0.7071055
vn 0.70710677 0.0 0.70710677
vn 0.7071093 0.0 0.7071042
vn 0.96592516 0.0 0.25882143
vn 0.96592516 0.0 0.25882143
vn 0.96592516 0.0 0.25882143
vn 0.96592516 0.0 0.25882143
vn 0.96592504 0.0 -0.25882205
vn 0.96592504 0.0 -0.25882205
vn 0.96592516 0.0 -0.25882143
vn 0.96592486 0.0 -0.25882268
vn 0.7071093 0.0 -0.70710427
vn 0.7071093 0.0 -0.70710427
vn 0.7071093 0.0 -0.7071042
vn 0.7071092 0.0 -0.70710427
vn 0.25881666 0.0 -0.9659265
vn 0.25881666 0.0 -0.9659265
vn 0.25881666 0.0 -0.9659265
vn 0.25881666 0.0 -0.9659265
vn -0.25881666 0.0 -0.9659265
vn -0.25881666 0.0 -0.9659265
vn -0.25881666 0.0 -0.9659265
vn -0.25881666 0.0 -0.9659265
vn -0.707108 0.0 -0.7071055
vn -0.707108 0.0 -0.7071055
vn -0.7071093 0.0 -0.7071042
vn -0.70710677 0.0 -0.70710677
vn -0.96592516 0.0 -0.25882143
vn -0.96592516 0.0 -0.25882143
vn -0.96592516 0.0 -0.25882143
vn -0.96592516 0.0 -0.25882143
vn -0.96592504 0.0 0.25882205
vn -0.96592504 0.0 0.25882205
vn -0.96592486 0.0 0.25882268
vn -0.96592516 0.0 0.25882143
vn -0.0 -1.0 0.0
vn -0.0 -1.0 0.0
vn -0.0 -1.0 0.0
vn -0.0 -1.0 0.0
vn -0.0 -1.0 0.0
vn -0.0 -1.0 0.0
vn -0.0 -1.0 0.0
vn -0.0 -1.0 0.0
vn -0.0 -1.0 0.0
vn -0.0 -1.0 0.0
vn -0.0 -1.0 0.0
vn -0.0 -1.0 0.0
vn -0.0 -1.0 0.0
vn -0.0 -1.0 0.0
vn -0.0 -1.0 0.0
vn -0.0 -1.0 0.0
vn -0.0 -1.0 0.0
vn -0.0 -1.0 0.0
vn -0.0 -1.0 0.0
vn -0.0 -1.0 0.0
vn -0.0 -1.0 0.0
vn -0.0 -1.0 0.0
vn -0.0 -1.0 0.0
vn -0.0 -1.0 0.0
vn -0.25881666 0.0 0.9659265
vn -0.25881666 0.0 0.9659265
vn -0.25881666 0.0 0.9659265
vn -0.25881666 0.0 0.9659265
vn -0.7071093 0.0 0.70710427
vn -0.7071093 0.0 0.70710427
vn -0.7071092 0.0 0.70710427
vn -0.7071093 0.0 0.7071042
vn -0.0 1.0 0.0
vn -0.0 1.0 0.0
vn -0.0 1.0 0.0
vn -0.0 1.0 0.0
vn -0.0 1.0 0.0
vn -0.0 1.0 0.0
vn -0.0 1.0 0.0
vn -0.0 1.0 0.0
vn -0.0 1.0 0.0
vn -0.0 1.0 0.0
vn -0.0 1.0 0.0
vn -0.0 1.0 0.0
vn -0.0 1.0 0.0
vn -0.0 1.0 0.0
vn -0.0 1.0 0.0
vn -0.0 1.0 0.0
vn -0.0 1.0 0.0
vn -0.0 1.0 0.0
vn -0.0 1.0 0.0
vn -0.0 1.0 0.0
vn -0.0 1.0 0.0
vn -0.0 1.0 0.0
vn -0.0 1.0 0.0
vn -0.0 1.0 0.0
vn 0.9659253 0.0 0.2588211
vn 0.9659253 0.0 0.2588211
vn 0.9659253 0.0 0.2588211
vn 0.9659253 0.0 0.2588211
vn 0.70710844 0.0 0.7071051
vn 0.70710844 0.0 0.7071051
vn 0.70710677 0.0 0.70710677
vn 0.7071101 0.0 0.70710343
vn 0.96592695 0.0 -0.25881487
vn 0.96592695 0.0 -0.25881487
vn 0.96592695 0.0 -0.25881487
vn 0.96592695 0.0 -0.25881487
vn 0.7071051 0.0 -0.70710844
vn 0.7071051 0.0 -0.70710844
vn 0.70710677 0.0 -0.70710677
vn 0.70710343 0.0 -0.7071101
vn 0.25881794 0.0 -0.96592605
vn 0.25881794 0.0 -0.96592605
vn 0.25881487 0.0 -0.96592695
vn 0.2588211 0.0 -0.9659253
vn -0.25881794 0.0 -0.96592605
vn -0.25881794 0.0 -0.96592605
vn -0.25881487 0.0 -0.96592695
vn -0.2588211 0.0 -0.9659253
vn -0.70710844 0.0 -0.7071051
vn -0.70710844 0.0 -0.7071051
vn -0.7071101 0.0 -0.70710343
vn -0.70710677 0.0 -0.70710677
vn -0.9659253 0.0 -0.2588211
vn -0.9659253 0.0 -0.2588211
vn -0.9659253 0.0 -0.2588211
vn -0.9659253 0.0 -0.2588211
vn -0.9659253 0.0 0.2588211
vn -0.9659253 0.0 0.2588211
vn -0.9659253 0.0 0.2588211
vn -0.9659253 0.0 0.2588211
vn -0.70710844 0.0 0.7071051
vn -0.70710844 0.0 0.7071051
vn -0.70710677 0.0 0.70710677
vn -0.7071101 0.0 0.70710343
vn -0.25881794 0.0 0.96592605
vn -0.25881794 0.0 0.96592605
vn -0.2588211 0.0 0.9659253
vn -0.25881487 0.0 0.96592695
vn 0.25881794 0.0 0.96592605
vn 0.25881794 0.0 0.96592605
vn 0.2588211 0.0 0.9659253
vn 0.25881487 0.0 0.96592695
vn -1.0 0.0 0.0
vn -1.0 0.0 0.0
vn -1.0 0.0 0.0
vn -1.0 0.0 0.0
vn -0.5340229 0.0 0.84547
vn -0.5340229 0.0 0.84547
vn -0.5340229 0.0 0.84547
vn -0.5340229 0.0 0.84547
vn -0.0 -1.0 0.0
vn -0.0 -1.0 0.0
vn -0.0 -1.0 0.0
vn -0.0 -1.0 0.0
vn -0.0 -1.0 0.0
vn -0.0 -1.0 0.0
vn -0.0 -1.0 0.0
vn -0.0 1.0 0.0
vn -0.0 1.0 0.0
vn -0.0 1.0 0.0
vn -0.0 1.0 0.0
vn -0.0 1.0 0.0
vn -0.0 1.0 0.0
vn -0.0 1.0 0.0
vn 0.5340229 0.0 -0.84547
vn 0.5340229 0.0 -0.84547
vn 0.5340229 0.0 -0.84547
vn 0.5340229 0.0 -0.84547
vn -0.0 -1.0 0.0
vn -0.0 -1.0 0.0
vn -0.0 -1.0 0.0
vn -0.0 -1.0 0.0
vn -0.0 1.0 0.0
vn -0.0 1.0 0.0
vn -0.0 1.0 0.0
vn -0.0 1.0 0.0
vn 1.0 0.0 0.0
vn 1.0 0.0 0.0
vn 1.0 0.0 0.0
vn 1.0 0.0 0.0
vn 0.534022 0.0 0.8454706
vn 0.534022 0.0 0.8454706
vn 0.534022 0.0 0.8454706
vn 0.534022 0.0 0.8454706
vn -0.5340242 0.0 -0.84546924
vn -0.5340242 0.0 -0.84546924
vn -0.5340242 0.0 -0.84546924
vn -0.5340242 0.0 -0.84546924
vt 0.108844 0.513902
vt 0.108844 0.513902
vt 0.108844 0.513902
vt 0.108844 0.513902
vt 0.108844 0.513902
vt 0.108844 0.513902
vt 0.108844 0.513902
vt 0.108844 0.513902
vt 0.108844 0.513902
vt 0.108844 0.513902
vt 0.108844 0.513902
vt 0.108844 0.513902
vt 0.108844 0.513902
vt 0.108844 0.513902
vt 0.108844 0.513902
vt 0.108844 0.513902
vt 0.108844 0.513902
vt 0.108844 0.513902
vt 0.108844 0.513902
vt 0.108844 0.513902
vt 0.108844 0.513902
vt 0.108844 0.513902
vt 0.108844 0.513902
vt 0.108844 0.513902
vt 0.108844 0.513902
vt 0.108844 0.513902
vt 0.108844 0.513902
vt 0.108844 0.513902
vt 0.108844 0.513902
vt 0.108844 0.513902
vt 0.108844 0.513902
vt 0.108844 0.513902
vt 0.108844 0.513902
vt 0.108844 0.513902
vt 0.108844 0.513902
vt 0.108844 0.513902
vt 0.108844 0.513902
vt 0.108844 0.513902
vt 0.108844 0.513902
vt 0.108844 0.513902
vt 0.108844 0.513902
vt 0.108844 0.513902
vt 0.108844 0.513902
vt 0.108844 0.513902
vt 0.108844 0.513902
vt 0.108844 0.513902
vt 0.108844 0.513902
vt 0.108844 0.513902
vt 0.108844 0.513902
vt 0.108844 0.513902
vt 0.108844 0.513902
vt 0.108844 0.513902
vt 0.108844 0.513902
vt 0.108844 0.513902
vt 0.108844 0.513902
vt 0.108844 0.513902
vt 0.108844 0.513902
vt 0.108844 0.513902
vt 0.108844 0.513902
vt 0.108844 0.513902
vt 0.108844 0.513902
vt 0.108844 0.513902
vt 0.108844 0.513902
vt 0.108844 0.513902
vt 0.108844 0.513902
vt 0.108844 0.513902
vt 0.108844 0.513902
vt 0.108844 0.513902
vt 0.108844 0.513902
vt 0.108844 0.513902
vt 0.108844 0.513902
vt 0.108844 0.513902
vt 0.108844 0.513902
vt 0.108844 0.513902
vt 0.108844 0.513902
vt 0.108844 0.513902
vt 0.108844 0.513902
vt 0.108844 0.513902
vt 0.108844 0.513902
vt 0.108844 0.513902
vt 0.108844 0.513902
vt 0.108844 0.513902
vt 0.108844 0.513902
vt 0.108844 0.513902
vt 0.108844 0.513902
vt 0.108844 0.513902
vt 0.108844 0.513902
vt 0.108844 0.513902
vt 0.108844 0.513902
vt 0.108844 0.513902
vt 0.108844 0.513902
vt 0.108844 0.513902
vt 0.108844 0.513902
vt 0.108844 0.513902
vt 0.108844 0.513902
vt 0.108844 0.513902
vt 0.108844 0.513902
vt 0.108844 0.513902
vt 0.108844 0.513902
vt 0.108844 0.513902
vt 0.108844 0.513902
vt 0.108844 0.513902
vt 0.108844 0.513902
vt 0.108844 0.513902
vt 0.108844 0.513902
vt 0.108844 0.513902
vt 0.108844 0.513902
vt 0.108844 0.513902
vt 0.108844 0.513902
vt 0.108844 0.513902
vt 0.108844 0.513902
vt 0.108844 0.513902
vt 0.108844 0.513902
vt 0.108844 0.513902
vt 0.108844 0.513902
vt 0.108844 0.513902
vt 0.108844 0.513902
vt 0.108844 0.513902
vt 0.108844 0.513902
vt 0.108844 0.513902
vt 0.108844 0.513902
vt 0.108844 0.513902
vt 0.108844 0.513902
vt 0.108844 0.513902
vt 0.108844 0.513902
vt 0.108844 0.513902
vt 0.108844 0.513902
vt 0.108844 0.513902
vt 0.108844 0.513902
vt 0.108844 0.513902
vt 0.108844 0.513902
vt 0.108844 0.513902
vt 0.108844 0.513902
vt 0.108844 0.513902
vt 0.108844 0.513902
vt 0.108844 0.513902
vt 0.108844 0.513902
vt 0.108844 0.513902
vt 0.108844 0.513902
vt 0.108844 0.513902
vt 0.108844 0.513902
vt 0.108844 0.513902
vt 0.108844 0.513902
vt 0.108844 0.513902
vt 0.776793 0.49815798
vt 0.779007 0.49711502
vt 0.776918 0.496221
vt 0.779 0.49741203
vt 0.779029 0.498787
vt 0.864456 0.49708402
vt 0.779074 0.49545002
vt 0.862394 0.49814802
vt 0.781342 0.498147
vt 0.776793 0.49815798
vt 0.779074 0.49545002
vt 0.873005 0.498213
vt 0.864456 0.49708402
vt 0.679571 0.494865
vt 0.670998 0.49592203
vt 0.779029 0.498787
vt 0.678253 0.492921
vt 0.776918 0.496221
vt 0.681633 0.49609202
vt 0.781241 0.496333
vt 0.862394 0.49814802
vt 0.865834 0.49528402
vt 0.781342 0.498147
vt 0.865834 0.49528402
vt 0.781241 0.496333
vt 0.873005 0.498213
vt 0.781342 0.498147
vt 0.779 0.49741203
vt 0.776793 0.49815798
vt 0.779199 0.49741203
vt 0.776918 0.496221
vt 0.779197 0.49712002
vt 0.781241 0.496333
vt 0.779007 0.49711502
vt 0.781241 0.496333
vt 0.779199 0.49741203
vt 0.781342 0.498147
vt 0.779197 0.49712002
vt 0.779074 0.49545002
vt 0.681633 0.49609202
vt 0.779029 0.498787
vt 0.679571 0.494865
vt 0.776918 0.496221
vt 0.670998 0.49592203
vt 0.776793 0.49815798
vt 0.678253 0.492921

g Model_0
s 1
usemtl Model_0
f 3/3/3 2/2/2 1/1/1 
f 2/2/2 4/4/4 1/1/1 
f 7/7/7 6/6/6 5/5/5 
f 6/6/6 8/8/8 5/5/5 
f 11/11/11 10/10/10 9/9/9 
f 10/10/10 12/12/12 9/9/9 
f 15/15/15 14/14/14 13/13/13 
f 14/14/14 16/16/16 13/13/13 
f 19/19/19 18/18/18 17/17/17 
f 18/18/18 20/20/20 17/17/17 
f 23/23/23 22/22/22 21/21/21 
f 22/22/22 24/24/24 21/21/21 
f 27/27/27 26/26/26 25/25/25 
f 26/26/26 28/28/28 25/25/25 
f 31/31/31 30/30/30 29/29/29 
f 30/30/30 32/32/32 29/29/29 
f 35/35/35 34/34/34 33/33/33 
f 34/34/34 36/36/36 33/33/33 
f 39/39/39 38/38/38 37/37/37 
f 38/38/38 40/40/40 37/37/37 
f 43/43/43 42/42/42 41/41/41 
f 42/42/42 44/44/44 41/41/41 
f 41/41/41 44/44/44 45/45/45 
f 44/44/44 46/46/46 45/45/45 
f 47/47/47 42/42/42 43/43/43 
f 48/48/48 47/47/47 43/43/43 
f 49/49/49 47/47/47 48/48/48 
f 50/50/50 49/49/49 48/48/48 
f 51/51/51 49/49/49 50/50/50 
f 52/52/52 51/51/51 50/50/50 
f 45/45/45 46/46/46 53/53/53 
f 46/46/46 54/54/54 53/53/53 
f 53/53/53 54/54/54 55/55/55 
f 54/54/54 56/56/56 55/55/55 
f 55/55/55 56/56/56 57/57/57 
f 56/56/56 58/58/58 57/57/57 
f 57/57/57 58/58/58 59/59/59 
f 58/58/58 60/60/60 59/59/59 
f 59/59/59 60/60/60 61/61/61 
f 60/60/60 62/62/62 61/61/61 
f 61/61/61 62/62/62 63/63/63 
f 62/62/62 64/64/64 63/63/63 
f 63/63/63 64/64/64 52/52/52 
f 64/64/64 51/51/51 52/52/52 
f 67/67/67 66/66/66 65/65/65 
f 66/66/66 68/68/68 65/65/65 
f 71/71/71 70/70/70 69/69/69 
f 70/70/70 72/72/72 69/69/69 
f 75/75/75 74/74/74 73/73/73 
f 74/74/74 76/76/76 73/73/73 
f 73/73/73 76/76/76 77/77/77 
f 76/76/76 78/78/78 77/77/77 
f 77/77/77 78/78/78 79/79/79 
f 78/78/78 80/80/80 79/79/79 
f 79/79/79 80/80/80 81/81/81 
f 80/80/80 82/82/82 81/81/81 
f 81/81/81 82/82/82 83/83/83 
f 82/82/82 84/84/84 83/83/83 
f 83/83/83 84/84/84 85/85/85 
f 84/84/84 86/86/86 85/85/85 
f 85/85/85 86/86/86 87/87/87 
f 86/86/86 88/88/88 87/87/87 
f 87/87/87 88/88/88 89/89/89 
f 88/88/88 90/90/90 89/89/89 
f 89/89/89 90/90/90 91/91/91 
f 90/90/90 92/92/92 91/91/91 
f 91/91/91 92/92/92 93/93/93 
f 92/92/92 94/94/94 93/93/93 
f 93/93/93 94/94/94 95/95/95 
f 94/94/94 96/96/96 95/95/95 
f 95/95/95 96/96/96 75/75/75 
f 96/96/96 74/74/74 75/75/75 
f 99/99/99 98/98/98 97/97/97 
f 98/98/98 100/100/100 97/97/97 
f 103/103/103 102/102/102 101/101/101 
f 102/102/102 104/104/104 101/101/101 
f 107/107/107 106/106/106 105/105/105 
f 106/106/106 108/108/108 105/105/105 
f 111/111/111 110/110/110 109/109/109 
f 110/110/110 112/112/112 109/109/109 
f 115/115/115 114/114/114 113/113/113 
f 114/114/114 116/116/116 113/113/113 
f 119/119/119 118/118/118 117/117/117 
f 118/118/118 120/120/120 117/117/117 
f 123/123/123 122/122/122 121/121/121 
f 122/122/122 124/124/124 121/121/121 
f 127/127/127 126/126/126 125/125/125 
f 126/126/126 128/128/128 125/125/125 
f 131/131/131 130/130/130 129/129/129 
f 130/130/130 132/132/132 129/129/129 
f 135/135/135 134/134/134 133/133/133 
f 134/134/134 136/136/136 133/133/133 
f 139/139/139 138/138/138 137/137/137 
f 138/138/138 140/140/140 137/137/137 
f 143/143/143 142/142/142 141/141/141 
f 142/142/142 144/144/144 141/141/141 
f 147/147/147 146/146/146 145/145/145 
f 146/146/146 148/148/148 145/145/145 
f 151/151/151 150/150/150 149/149/149 
f 150/150/150 152/152/152 149/149/149 
f 155/155/155 154/154/154 153/153/153 
f 153/153/153 156/156/156 155/155/155 
f 156/156/156 157/157/157 155/155/155 
f 155/155/155 158/158/158 154/154/154 
f 158/158/158 159/159/159 154/154/154 
f 162/162/162 161/161/161 160/160/160 
f 161/161/161 163/163/163 160/160/160 
f 164/164/164 162/162/162 160/160/160 
f 160/160/160 165/165/165 164/164/164 
f 165/165/165 166/166/166 164/164/164 
f 169/169/169 168/168/168 167/167/167 
f 168/168/168 170/170/170 167/167/167 
f 173/173/173 172/172/172 171/171/171 
f 172/172/172 174/174/174 171/171/171 
f 177/177/177 176/176/176 175/175/175 
f 176/176/176 178/178/178 175/175/175 
f 181/181/181 180/180/180 179/179/179 
f 180/180/180 182/182/182 179/179/179 
f 185/185/185 184/184/184 183/183/183 
f 184/184/184 186/186/186 183/183/183 
f 189/189/189 188/188/188 187/187/187 
f 188/188/188 190/190/190 187/187/187 

